<svg 
    width="69" 
    height="20" 
    viewBox="0 0 69 20" 
    fill="none" 
    xmlns="http://www.w3.org/2000/svg"
>
    <path 
        d="M1.624 19C1.272 19 0.976 18.88 0.736 18.64C0.512 18.4 0.4 18.104 0.4 17.752V1.504C0.4 1.136 0.512 0.839999 0.736 0.615999C0.976 0.375999 1.272 0.256 1.624 0.256C2.008 0.256 2.328 0.408 2.584 0.711999L13.048 14.632V1.504C13.048 1.136 13.168 0.839999 13.408 0.615999C13.648 0.375999 13.944 0.256 14.296 0.256C14.664 0.256 14.96 0.375999 15.184 0.615999C15.408 0.839999 15.52 1.136 15.52 1.504V17.752C15.52 18.104 15.408 18.4 15.184 18.64C14.96 18.88 14.664 19 14.296 19C14.136 19 13.96 18.968 13.768 18.904C13.592 18.824 13.448 18.712 13.336 18.568L2.872 4.648V17.752C2.872 18.104 2.752 18.4 2.512 18.64C2.288 18.88 1.992 19 1.624 19ZM23.9699 19C23.6179 19 23.3219 18.88 23.0819 18.64C22.8419 18.4 22.7219 18.104 22.7219 17.752V1.504C22.7219 1.136 22.8419 0.839999 23.0819 0.615999C23.3219 0.375999 23.6179 0.256 23.9699 0.256C24.3379 0.256 24.6339 0.375999 24.8579 0.615999C25.0979 0.839999 25.2179 1.136 25.2179 1.504V17.752C25.2179 18.104 25.0979 18.4 24.8579 18.64C24.6339 18.88 24.3379 19 23.9699 19ZM33.6589 19C33.3229 19 33.0269 18.88 32.7709 18.64C32.5309 18.4 32.4109 18.104 32.4109 17.752V1.504C32.4109 1.152 32.5309 0.855999 32.7709 0.615999C33.0269 0.375999 33.3229 0.256 33.6589 0.256C34.0109 0.256 34.3069 0.375999 34.5469 0.615999C34.7869 0.855999 34.9069 1.152 34.9069 1.504V8.704L42.8509 0.759999C43.0429 0.567999 43.2189 0.44 43.3789 0.375999C43.5389 0.296 43.7069 0.256 43.8829 0.256C44.2829 0.256 44.5709 0.375999 44.7469 0.615999C44.9229 0.855999 44.9869 1.144 44.9389 1.48C44.8909 1.8 44.7389 2.096 44.4829 2.368L38.3629 8.512L44.6029 17.008C44.7949 17.28 44.8749 17.576 44.8429 17.896C44.8109 18.2 44.6989 18.464 44.5069 18.688C44.3149 18.896 44.0589 19 43.7389 19C43.2909 19 42.9469 18.824 42.7069 18.472L36.6349 10.24L34.9069 11.968V17.752C34.9069 18.104 34.7869 18.4 34.5469 18.64C34.3069 18.88 34.0109 19 33.6589 19ZM58.5218 19.24C57.1138 19.24 55.8258 19.008 54.6578 18.544C53.4898 18.064 52.4818 17.4 51.6338 16.552C50.8018 15.688 50.1538 14.672 49.6898 13.504C49.2258 12.32 48.9938 11.024 48.9938 9.616C48.9938 8.208 49.2258 6.92 49.6898 5.752C50.1538 4.584 50.8018 3.576 51.6338 2.728C52.4818 1.864 53.4898 1.2 54.6578 0.735999C55.8258 0.256 57.1138 0.0159998 58.5218 0.0159998C59.9298 0.0159998 61.2098 0.256 62.3618 0.735999C63.5298 1.2 64.5378 1.864 65.3858 2.728C66.2338 3.576 66.8898 4.584 67.3538 5.752C67.8178 6.92 68.0498 8.208 68.0498 9.616C68.0498 11.024 67.8178 12.32 67.3538 13.504C66.8898 14.672 66.2338 15.688 65.3858 16.552C64.5378 17.4 63.5298 18.064 62.3618 18.544C61.2098 19.008 59.9298 19.24 58.5218 19.24ZM58.5218 16.984C59.5618 16.984 60.5138 16.8 61.3778 16.432C62.2578 16.048 63.0178 15.528 63.6578 14.872C64.2978 14.2 64.7858 13.416 65.1218 12.52C65.4738 11.624 65.6498 10.656 65.6498 9.616C65.6498 8.576 65.4738 7.608 65.1218 6.712C64.7858 5.816 64.2978 5.04 63.6578 4.384C63.0178 3.712 62.2578 3.192 61.3778 2.824C60.5138 2.456 59.5618 2.272 58.5218 2.272C57.4818 2.272 56.5218 2.456 55.6418 2.824C54.7778 3.192 54.0258 3.712 53.3858 4.384C52.7618 5.04 52.2738 5.816 51.9218 6.712C51.5698 7.608 51.3938 8.576 51.3938 9.616C51.3938 10.656 51.5698 11.624 51.9218 12.52C52.2738 13.416 52.7618 14.2 53.3858 14.872C54.0258 15.528 54.7778 16.048 55.6418 16.432C56.5218 16.8 57.4818 16.984 58.5218 16.984Z" 
        fill="#3FA6A0"
    />
</svg>
