<svg width="48" height="48" viewBox="0 0 48 48" fill="none" xmlns="http://www.w3.org/2000/svg">
<mask id="mask0_2317_85" style="mask-type:alpha" maskUnits="userSpaceOnUse" x="0" y="0" width="48" height="48">
<rect width="48" height="48" fill="white"/>
</mask>
<g mask="url(#mask0_2317_85)">
<path d="M35.5 40.5C33.4 40.5 31.625 39.775 30.175 38.325C28.725 36.875 28 35.1 28 33C28 30.9 28.725 29.125 30.175 27.675C31.625 26.225 33.4 25.5 35.5 25.5C37.6 25.5 39.375 26.225 40.825 27.675C42.275 29.125 43 30.9 43 33C43 35.1 42.275 36.875 40.825 38.325C39.375 39.775 37.6 40.5 35.5 40.5ZM35.5 36.5C36.4667 36.5 37.2917 36.1583 37.975 35.475C38.6583 34.7917 39 33.9667 39 33C39 32.0333 38.6583 31.2083 37.975 30.525C37.2917 29.8417 36.4667 29.5 35.5 29.5C34.5333 29.5 33.7083 29.8417 33.025 30.525C32.3417 31.2083 32 32.0333 32 33C32 33.9667 32.3417 34.7917 33.025 35.475C33.7083 36.1583 34.5333 36.5 35.5 36.5ZM8 35V31H24V35H8ZM12.5 22.5C10.4 22.5 8.625 21.775 7.175 20.325C5.725 18.875 5 17.1 5 15C5 12.9 5.725 11.125 7.175 9.675C8.625 8.225 10.4 7.5 12.5 7.5C14.6 7.5 16.375 8.225 17.825 9.675C19.275 11.125 20 12.9 20 15C20 17.1 19.275 18.875 17.825 20.325C16.375 21.775 14.6 22.5 12.5 22.5ZM12.5 18.5C13.4667 18.5 14.2917 18.1583 14.975 17.475C15.6583 16.7917 16 15.9667 16 15C16 14.0333 15.6583 13.2083 14.975 12.525C14.2917 11.8417 13.4667 11.5 12.5 11.5C11.5333 11.5 10.7083 11.8417 10.025 12.525C9.34167 13.2083 9 14.0333 9 15C9 15.9667 9.34167 16.7917 10.025 17.475C10.7083 18.1583 11.5333 18.5 12.5 18.5ZM24 17V13H40V17H24Z" fill="white"/>
</g>
</svg>
