<svg width="48" height="48" viewBox="0 0 48 48" fill="none" xmlns="http://www.w3.org/2000/svg">
<mask id="mask0_2317_68" style="mask-type:alpha" maskUnits="userSpaceOnUse" x="0" y="0" width="48" height="48">
<rect width="48" height="48" fill="white"/>
</mask>
<g mask="url(#mask0_2317_68)">
<path d="M24 44C19.3667 42.8333 15.5417 40.175 12.525 36.025C9.50833 31.875 8 27.2667 8 22.2V10L24 4L40 10V22.2C40 22.5333 39.9917 22.8667 39.975 23.2C39.9583 23.5333 39.9333 23.8667 39.9 24.2C39.6 24.1333 39.2917 24.0833 38.975 24.05C38.6583 24.0167 38.3333 24 38 24C37.6333 24 37.2833 24.0167 36.95 24.05C36.6167 24.0833 36.2667 24.1333 35.9 24.2C35.9333 23.8667 35.9583 23.5417 35.975 23.225C35.9917 22.9083 36 22.5667 36 22.2V12.75L24 8.25L12 12.75V22.2C12 26.2333 13.1333 29.9 15.4 33.2C17.6667 36.5 20.5333 38.7 24 39.8C24.7 39.5667 25.3833 39.2833 26.05 38.95C26.7167 38.6167 27.3667 38.2333 28 37.8V42.5C27.3667 42.8333 26.7167 43.125 26.05 43.375C25.3833 43.625 24.7 43.8333 24 44ZM33.7 44C33.2333 44 32.8333 43.8333 32.5 43.5C32.1667 43.1667 32 42.7667 32 42.3V35.7C32 35.2333 32.1667 34.8333 32.5 34.5C32.8333 34.1667 33.2333 34 33.7 34H34V32C34 30.9 34.3917 29.9583 35.175 29.175C35.9583 28.3917 36.9 28 38 28C39.1 28 40.0417 28.3917 40.825 29.175C41.6083 29.9583 42 30.9 42 32V34H42.3C42.7667 34 43.1667 34.1667 43.5 34.5C43.8333 34.8333 44 35.2333 44 35.7V42.3C44 42.7667 43.8333 43.1667 43.5 43.5C43.1667 43.8333 42.7667 44 42.3 44H33.7ZM36 34H40V32C40 31.4333 39.8083 30.9583 39.425 30.575C39.0417 30.1917 38.5667 30 38 30C37.4333 30 36.9583 30.1917 36.575 30.575C36.1917 30.9583 36 31.4333 36 32V34Z" fill="white"/>
</g>
</svg>
